<svg width="1614" height="152" viewBox="0 0 1614 152" fill="none" xmlns="http://www.w3.org/2000/svg">
<g opacity="0.8">
<mask id="path-1-outside-1_401_1067" maskUnits="userSpaceOnUse" x="-9.21887" y="-4.83792" width="1631.23" height="161.437" fill="black">
<rect fill="white" x="-9.21887" y="-4.83792" width="1631.23" height="161.437"/>
<path d="M1.16021 146.222L93.1221 3.94318L117.272 3.96856L135.77 146.363L104.9 146.331L102.324 118.057L48.3541 118L31.1902 146.253L1.16021 146.222ZM63.471 93.6085L100.011 93.6469L95.2794 41.98L63.471 93.6085ZM151.568 146.38L188.3 4.04323L256.34 4.11476C265.58 4.12447 273.21 5.48845 279.23 8.2067C285.39 10.9251 289.503 15.3363 291.569 21.4402C293.775 27.5444 293.549 35.7477 290.89 46.0501C287.602 58.7927 282.248 68.4143 274.829 74.9151C267.584 81.2805 258.765 85.3391 248.37 87.0909L262.868 146.497L231.158 146.464L220.125 88.2816L193.875 88.254L178.868 146.409L151.568 146.38ZM200.225 63.6501L237.185 63.6889C243.485 63.6955 248.804 62.3452 253.144 59.6378C257.484 56.9305 260.476 52.3912 262.12 46.0199C263.729 39.7842 263.064 35.3088 260.123 32.5938C257.183 29.8788 252.563 28.518 246.263 28.5114L209.303 28.4725L200.225 63.6501ZM286.099 146.521L322.831 4.18466L350.131 4.21336L372.714 71.3569L429.511 4.29681L457.021 4.32573L420.289 146.663L392.569 146.633L417.494 50.0477L371.721 105.323L355.761 105.306L338.534 49.9647L313.609 146.55L286.099 146.521ZM469.736 146.715L474.547 4.34415L502.687 4.37373L496.715 99.1488L545.947 4.41921L570.307 4.44482L570.634 99.2265L613.567 4.4903L641.917 4.5201L573.266 146.823L548.276 146.797L547.58 45.303L494.516 146.741L469.736 146.715ZM622.837 146.875L659.569 4.53866L727.609 4.61018C736.849 4.6199 744.479 5.98388 750.499 8.70212C756.66 11.4205 760.773 15.8317 762.839 21.9357C765.044 28.0398 764.818 36.2431 762.159 46.5456C758.871 59.2881 753.517 68.9098 746.098 75.4105C738.854 81.7759 730.034 85.8345 719.639 87.5863L734.137 146.992L702.427 146.959L691.395 88.777L665.145 88.7494L650.137 146.904L622.837 146.875ZM671.494 64.1455L708.454 64.1843C714.754 64.191 720.074 62.8406 724.413 60.1332C728.753 57.4259 731.745 52.8866 733.389 46.5153C734.998 40.2796 734.333 35.8043 731.392 33.0893C728.452 30.3742 723.832 29.0134 717.532 29.0068L680.572 28.968L671.494 64.1455ZM757.368 147.017L794.1 4.68008L894.27 4.78539L887.973 29.186L815.103 29.1094L806.55 62.2535L873.12 62.3235L866.823 86.7241L800.253 86.6541L790.965 122.645L866.145 122.724L859.848 147.125L757.368 147.017ZM934.638 150.254C922.038 150.241 911.1 147.585 901.824 142.287C892.724 136.854 886.755 127.695 883.918 114.81L909.957 102.634C912.198 109.687 915.681 115.183 920.406 119.12C925.132 123.057 932.395 125.031 942.195 125.041C951.855 125.051 958.697 123.499 962.722 120.385C966.781 117.135 969.493 112.866 970.857 107.58C971.732 104.191 971.644 101.275 970.594 98.8334C969.684 96.3917 966.778 94.0835 961.878 91.9089C957.153 89.5988 949.522 87.15 938.987 84.5626C926.212 81.4305 917.496 76.4043 912.84 69.484C908.184 62.5638 907.186 53.9524 909.844 43.6499C912.048 35.1097 916.072 27.6562 921.917 21.2893C927.761 14.9225 934.918 9.98076 943.387 6.46417C952.032 2.81218 961.534 0.991623 971.894 1.00251C981.414 1.01252 989.447 2.44472 995.992 5.29912C1002.54 8.1535 1007.74 11.8878 1011.59 16.5022C1015.58 21.1166 1018.34 26.1365 1019.88 31.562L994.212 47.1963C992.952 43.9407 991.184 40.7523 988.909 37.6312C986.808 34.3747 983.868 31.6597 980.088 29.4862C976.307 27.3127 971.267 26.2226 964.967 26.216C958.387 26.2091 952.647 27.559 947.748 30.2658C943.023 32.8371 939.944 36.9018 938.509 42.4597C937.95 44.6286 937.932 46.8659 938.458 49.1716C939.158 51.3419 941.398 53.5138 945.178 55.6873C949.099 57.8609 955.591 60.1051 964.657 62.4197C980.057 66.2326 990.418 71.9385 995.739 79.5375C1001.23 87.001 1002.57 96.2229 999.732 107.203C996.129 121.166 988.466 131.87 976.742 139.315C965.192 146.625 951.158 150.272 934.638 150.254ZM1047.13 147.322L1077.57 29.3853L1034.31 29.3398L1040.6 4.93922L1154.42 5.05887L1148.13 29.4595L1105.08 29.4142L1074.64 147.35L1047.13 147.322ZM1136.97 147.416L1173.7 5.07914L1201 5.10784L1170.56 123.044L1245.95 123.123L1239.66 147.524L1136.97 147.416ZM1257.14 147.542L1293.88 5.20547L1321.18 5.23417L1284.44 147.571L1257.14 147.542ZM1312.51 147.6L1349.25 5.26368L1376.55 5.29238L1417.46 101.54L1442.28 5.36148L1469.79 5.3904L1433.05 147.727L1407.01 147.7L1365.47 48.1968L1339.81 147.629L1312.51 147.6ZM1521.21 151.278C1507.91 151.264 1496.87 148.201 1488.08 142.09C1479.43 135.979 1473.61 127.363 1470.59 116.241C1467.76 104.983 1468.3 91.7633 1472.22 76.5807C1476.17 61.2625 1482.45 48.0485 1491.06 36.9388C1499.84 25.6936 1510.13 17.0262 1521.93 10.9368C1533.9 4.71202 1546.53 1.6066 1559.83 1.62058C1571.03 1.63236 1580.81 3.60878 1589.18 7.54984C1597.58 11.3554 1604.07 16.0402 1608.66 21.6045L1586.08 42.3269C1583.28 37.9849 1578.94 34.4548 1573.06 31.7367C1567.22 28.8831 1560.59 27.4524 1553.17 27.4446C1544.91 27.4359 1537.22 29.5295 1530.12 33.7255C1523.19 37.7861 1517.17 43.4748 1512.06 50.7916C1507.09 58.1085 1503.33 66.7149 1500.78 76.6107C1498.26 86.3709 1497.59 94.9128 1498.78 102.236C1500.12 109.56 1503.18 115.326 1507.97 119.534C1512.95 123.607 1519.56 125.648 1527.82 125.657C1534.26 125.664 1539.65 125.127 1543.99 124.047C1548.37 122.831 1552.18 121.343 1555.43 119.584L1562.52 92.1335L1540.26 92.1101L1546.56 67.7095L1596.54 67.762L1578.64 137.1C1570.31 141.702 1561.07 145.218 1550.92 147.648C1540.91 150.078 1531.01 151.288 1521.21 151.278Z"/>
</mask>
<path d="M1.16021 146.222L-3.08091 144.514L-7.309 151.056L-0.0891729 151.063L1.16021 146.222ZM93.1221 3.94318L94.3715 -0.89821L90.9088 -0.90185L88.881 2.23549L93.1221 3.94318ZM117.272 3.96857L122.392 2.27072L121.984 -0.869182L118.521 -0.872822L117.272 3.96857ZM135.77 146.363L134.521 151.205L141.741 151.212L140.89 144.666L135.77 146.363ZM104.9 146.331L99.7634 147.877L100.063 151.169L103.651 151.172L104.9 146.331ZM102.324 118.057L107.461 116.511L107.161 113.219L103.573 113.215L102.324 118.057ZM48.3541 118L49.6035 113.158L46.016 113.155L44.0177 116.444L48.3541 118ZM31.1902 146.253L29.9408 151.095L33.5283 151.099L35.5266 147.809L31.1902 146.253ZM63.471 93.6085L59.1555 92.0187L55.1978 98.4425L62.2216 98.4499L63.471 93.6085ZM100.011 93.6469L98.7616 98.4883L105.733 98.4957L105.148 92.0993L100.011 93.6469ZM95.2794 41.98L100.416 40.4324L99.1895 27.0392L90.9639 40.3902L95.2794 41.98ZM5.40134 147.93L97.3632 5.65086L88.881 2.23549L-3.08091 144.514L5.40134 147.93ZM91.8727 8.78457L116.023 8.80995L118.521 -0.872822L94.3715 -0.89821L91.8727 8.78457ZM112.152 5.66641L130.65 148.061L140.89 144.666L122.392 2.27072L112.152 5.66641ZM137.02 141.522L106.15 141.49L103.651 151.172L134.521 151.205L137.02 141.522ZM110.037 144.785L107.461 116.511L97.1873 119.602L99.7634 147.877L110.037 144.785ZM103.573 113.215L49.6035 113.158L47.1047 122.841L101.075 122.898L103.573 113.215ZM44.0177 116.444L26.8538 144.698L35.5266 147.809L52.6905 119.556L44.0177 116.444ZM32.4396 141.412L2.4096 141.381L-0.0891729 151.063L29.9408 151.095L32.4396 141.412ZM62.2216 98.4499L98.7616 98.4883L101.26 88.8056L64.7204 88.7671L62.2216 98.4499ZM105.148 92.0993L100.416 40.4324L90.1428 43.5277L94.8744 95.1946L105.148 92.0993ZM90.9639 40.3902L59.1555 92.0187L67.7865 95.1984L99.5949 43.5699L90.9639 40.3902ZM151.568 146.38L146.568 146.375L145.318 151.216L150.318 151.221L151.568 146.38ZM188.3 4.04323L189.549 -0.798154L184.549 -0.80341L183.3 4.03798L188.3 4.04323ZM279.23 8.2067L276.154 12.6737L276.169 12.6804L276.184 12.6871L279.23 8.2067ZM291.569 21.4402L286.615 23.8577L286.627 23.8923L286.639 23.9266L291.569 21.4402ZM274.829 74.9151L271.838 71.7667L271.831 71.7733L274.829 74.9151ZM248.37 87.0909L248.699 82.3278L241.928 83.4688L243.327 89.2035L248.37 87.0909ZM262.868 146.497L261.618 151.338L269.61 151.347L267.911 144.384L262.868 146.497ZM231.158 146.464L226.073 148.385L226.626 151.302L229.908 151.305L231.158 146.464ZM220.125 88.2816L225.21 86.3606L224.657 83.4437L221.375 83.4402L220.125 88.2816ZM193.875 88.254L195.125 83.4126L190.125 83.4074L188.875 88.2487L193.875 88.254ZM178.868 146.409L177.618 151.25L182.618 151.255L183.868 146.414L178.868 146.409ZM200.225 63.6501L195.225 63.6448L193.975 68.4862L198.975 68.4914L200.225 63.6501ZM253.144 59.6378L255.202 63.4784L253.144 59.6378ZM260.123 32.5938L256.084 36.428L260.123 32.5938ZM209.303 28.4725L210.552 23.6311L205.552 23.6259L204.303 28.4673L209.303 28.4725ZM156.568 146.385L193.3 4.04849L183.3 4.03798L146.568 146.375L156.568 146.385ZM187.05 8.88462L255.09 8.95615L257.589 -0.726626L189.549 -0.798154L187.05 8.88462ZM255.09 8.95615C263.841 8.96535 270.805 10.2585 276.154 12.6737L282.306 3.73975C275.615 0.718369 267.318 -0.716399 257.589 -0.726626L255.09 8.95615ZM276.184 12.6871C281.44 15.0067 284.87 18.7024 286.615 23.8577L296.524 19.0228C294.137 11.9701 289.34 6.84347 282.276 3.7263L276.184 12.6871ZM286.639 23.9266C288.477 29.0134 288.418 36.2496 285.89 46.0449L295.89 46.0554C298.679 35.2457 299.073 26.0754 296.5 18.9539L286.639 23.9266ZM285.89 46.0449C282.758 58.1809 277.869 66.4825 271.838 71.7667L277.819 78.0635C286.627 70.3461 292.445 59.4045 295.89 46.0554L285.89 46.0449ZM271.831 71.7733C265.711 77.1504 258.119 80.7402 248.699 82.3278L248.042 91.8541C259.411 89.938 269.458 85.4106 277.826 78.0569L271.831 71.7733ZM243.327 89.2035L257.825 148.61L267.911 144.384L253.413 84.9783L243.327 89.2035ZM264.117 141.656L232.407 141.622L229.908 151.305L261.618 151.338L264.117 141.656ZM236.242 144.543L225.21 86.3606L215.041 90.2026L226.073 148.385L236.242 144.543ZM221.375 83.4402L195.125 83.4126L192.626 93.0954L218.876 93.123L221.375 83.4402ZM188.875 88.2487L173.868 146.403L183.868 146.414L198.875 88.2593L188.875 88.2487ZM180.117 141.567L152.817 141.539L150.318 151.221L177.618 151.25L180.117 141.567ZM198.975 68.4914L235.935 68.5303L238.434 58.8475L201.474 58.8087L198.975 68.4914ZM235.935 68.5303C242.934 68.5377 249.494 67.0396 255.202 63.4784L251.086 55.7972C248.115 57.6507 244.036 58.8534 238.434 58.8475L235.935 68.5303ZM255.202 63.4784C261.567 59.5075 265.264 53.2158 267.12 46.0251L257.12 46.0146C255.687 51.5665 253.4 54.3534 251.086 55.7972L255.202 63.4784ZM267.12 46.0251C268.952 38.9271 268.455 32.7233 264.162 28.7596L256.084 36.428C257.672 37.8944 258.507 40.6412 257.12 46.0146L267.12 46.0251ZM264.162 28.7596C260.294 25.1884 254.51 23.6773 247.512 23.67L245.013 33.3528C250.615 33.3587 254.071 34.5692 256.084 36.428L264.162 28.7596ZM247.512 23.67L210.552 23.6311L208.053 33.3139L245.013 33.3528L247.512 23.67ZM204.303 28.4673L195.225 63.6448L205.225 63.6553L214.303 28.4778L204.303 28.4673ZM286.099 146.521L281.099 146.516L279.849 151.358L284.849 151.363L286.099 146.521ZM322.831 4.18466L324.08 -0.656727L319.08 -0.661984L317.831 4.1794L322.831 4.18466ZM350.131 4.21336L355.087 1.80223L354.271 -0.624989L351.38 -0.628028L350.131 4.21336ZM372.714 71.357L367.758 73.7681L370.223 81.0985L376.44 73.758L372.714 71.357ZM429.511 4.29681L430.76 -0.54458L427.854 -0.547634L425.785 1.89573L429.511 4.29681ZM457.021 4.32573L462.021 4.33098L463.27 -0.510403L458.27 -0.51566L457.021 4.32573ZM420.289 146.663L419.039 151.504L424.039 151.509L425.289 146.668L420.289 146.663ZM392.569 146.633L387.569 146.628L386.319 151.47L391.319 151.475L392.569 146.633ZM417.494 50.0477L422.494 50.053L413.719 47.7052L417.494 50.0477ZM371.721 105.323L370.472 110.164L373.424 110.167L375.496 107.665L371.721 105.323ZM355.761 105.306L350.779 107.639L351.559 110.144L354.512 110.147L355.761 105.306ZM338.534 49.9647L343.516 47.6314L333.534 49.9594L338.534 49.9647ZM313.609 146.55L312.359 151.392L317.359 151.397L318.609 146.556L313.609 146.55ZM291.099 146.527L327.831 4.18992L317.831 4.1794L281.099 146.516L291.099 146.527ZM321.581 9.02605L348.881 9.05475L351.38 -0.628028L324.08 -0.656727L321.581 9.02605ZM345.174 6.62448L367.758 73.7681L377.671 68.9458L355.087 1.80223L345.174 6.62448ZM376.44 73.758L433.237 6.69788L425.785 1.89573L368.988 68.9559L376.44 73.758ZM428.261 9.1382L455.771 9.16712L458.27 -0.51566L430.76 -0.54458L428.261 9.1382ZM452.021 4.32047L415.289 146.657L425.289 146.668L462.021 4.33098L452.021 4.32047ZM421.538 141.821L393.818 141.792L391.319 151.475L419.039 151.504L421.538 141.821ZM397.569 146.639L422.494 50.053L412.494 50.0425L387.569 146.628L397.569 146.639ZM413.719 47.7052L367.946 102.98L375.496 107.665L421.269 52.3903L413.719 47.7052ZM372.97 100.481L357.01 100.464L354.512 110.147L370.472 110.164L372.97 100.481ZM360.743 102.972L343.516 47.6314L333.552 52.298L350.779 107.639L360.743 102.972ZM333.534 49.9594L308.609 146.545L318.609 146.556L343.534 49.97L333.534 49.9594ZM314.858 141.709L287.348 141.68L284.849 151.363L312.359 151.392L314.858 141.709ZM469.736 146.715L464.584 147.737L464.455 151.552L468.486 151.556L469.736 146.715ZM474.548 4.34415L475.797 -0.497234L469.595 -0.503755L469.396 5.36635L474.548 4.34415ZM502.687 4.37374L507.832 3.48052L508.081 -0.463296L503.937 -0.467652L502.687 4.37374ZM496.715 99.1488L491.569 100.042L501.255 100.342L496.715 99.1488ZM545.947 4.41921L547.197 -0.422175L543.305 -0.426266L541.407 3.2257L545.947 4.41921ZM570.307 4.44482L575.461 3.2615L575.449 -0.392475L571.557 -0.396566L570.307 4.44482ZM570.634 99.2265L565.481 100.41L575.316 100.13L570.634 99.2265ZM613.567 4.4903L614.817 -0.351089L610.673 -0.355446L608.886 3.58676L613.567 4.4903ZM641.917 4.5201L646.538 5.55257L649.369 -0.314766L643.167 -0.321286L641.917 4.5201ZM573.266 146.823L572.016 151.665L576.047 151.669L577.887 147.856L573.266 146.823ZM548.276 146.797L543.122 147.995L543.147 151.634L547.026 151.638L548.276 146.797ZM547.58 45.303L552.734 44.1052L543.047 44.095L547.58 45.303ZM494.516 146.741L493.266 151.582L497.145 151.586L499.048 147.949L494.516 146.741ZM474.887 145.692L479.699 3.32196L469.396 5.36635L464.584 147.737L474.887 145.692ZM473.298 9.18554L501.438 9.21512L503.937 -0.467652L475.797 -0.497234L473.298 9.18554ZM497.542 5.26694L491.569 100.042L501.86 98.2556L507.832 3.48052L497.542 5.26694ZM501.255 100.342L550.488 5.61273L541.407 3.2257L492.174 97.9553L501.255 100.342ZM544.698 9.2606L569.058 9.28621L571.557 -0.396566L547.197 -0.422175L544.698 9.2606ZM565.154 5.62815L565.481 100.41L575.788 98.0432L575.461 3.2615L565.154 5.62815ZM575.316 100.13L618.249 5.39383L608.886 3.58676L565.953 98.323L575.316 100.13ZM612.318 9.33169L640.668 9.36149L643.167 -0.321286L614.817 -0.351089L612.318 9.33169ZM637.296 3.48763L568.644 145.791L577.887 147.856L646.538 5.55257L637.296 3.48763ZM574.515 141.982L549.525 141.956L547.026 151.638L572.016 151.665L574.515 141.982ZM553.429 145.599L552.734 44.1052L542.427 46.5009L543.122 147.995L553.429 145.599ZM543.047 44.095L489.983 145.533L499.048 147.949L552.113 46.511L543.047 44.095ZM495.765 141.899L470.985 141.873L468.486 151.556L493.266 151.582L495.765 141.899ZM622.837 146.875L617.837 146.87L616.588 151.712L621.588 151.717L622.837 146.875ZM659.569 4.53866L660.818 -0.30273L655.818 -0.307986L654.569 4.5334L659.569 4.53866ZM750.499 8.70212L747.423 13.1691L747.438 13.1759L747.453 13.1825L750.499 8.70212ZM762.838 21.9357L757.884 24.3532L757.896 24.3878L757.908 24.422L762.838 21.9357ZM746.098 75.4105L743.107 72.2621L743.1 72.2687L746.098 75.4105ZM719.639 87.5863L719.968 82.8232L713.197 83.9643L714.596 89.6989L719.639 87.5863ZM734.137 146.992L732.887 151.834L740.879 151.842L739.18 144.88L734.137 146.992ZM702.427 146.959L697.343 148.88L697.896 151.797L701.177 151.801L702.427 146.959ZM691.395 88.777L696.479 86.856L695.926 83.9391L692.644 83.9356L691.395 88.777ZM665.145 88.7494L666.394 83.908L661.394 83.9028L660.145 88.7442L665.145 88.7494ZM650.137 146.904L648.888 151.746L653.888 151.751L655.137 146.909L650.137 146.904ZM671.494 64.1455L666.494 64.1402L665.245 68.9816L670.245 68.9869L671.494 64.1455ZM724.413 60.1332L726.472 63.9739L724.413 60.1332ZM731.392 33.0893L727.354 36.9234L731.392 33.0893ZM680.572 28.9679L681.821 24.1266L676.821 24.1213L675.572 28.9627L680.572 28.9679ZM627.837 146.881L664.569 4.54391L654.569 4.5334L617.837 146.87L627.837 146.881ZM658.319 9.38005L726.359 9.45157L728.858 -0.231203L660.818 -0.30273L658.319 9.38005ZM726.359 9.45157C735.11 9.46077 742.074 10.754 747.423 13.1691L753.576 4.23518C746.884 1.21379 738.588 -0.220975 728.858 -0.231203L726.359 9.45157ZM747.453 13.1825C752.71 15.5021 756.139 19.1978 757.884 24.3532L767.793 19.5182C765.406 12.4656 760.61 7.3389 753.546 4.22173L747.453 13.1825ZM757.908 24.422C759.746 29.5088 759.687 36.745 757.159 46.5403L767.159 46.5508C769.949 35.7411 770.342 26.5708 767.769 19.4493L757.908 24.422ZM757.159 46.5403C754.027 58.6763 749.138 66.978 743.107 72.2621L749.088 78.559C757.896 70.8416 763.714 59.8999 767.159 46.5508L757.159 46.5403ZM743.1 72.2687C736.98 77.6458 729.388 81.2356 719.968 82.8232L719.311 92.3495C730.68 90.4334 740.727 85.906 749.096 78.5523L743.1 72.2687ZM714.596 89.6989L729.094 149.105L739.18 144.88L724.682 85.4738L714.596 89.6989ZM735.386 142.151L703.676 142.118L701.177 151.801L732.887 151.834L735.386 142.151ZM707.511 145.038L696.479 86.856L686.31 90.698L697.343 148.88L707.511 145.038ZM692.644 83.9356L666.394 83.908L663.895 93.5908L690.145 93.6184L692.644 83.9356ZM660.145 88.7442L645.137 146.899L655.137 146.909L670.145 88.7547L660.145 88.7442ZM651.386 142.063L624.086 142.034L621.588 151.717L648.888 151.746L651.386 142.063ZM670.245 68.9869L707.205 69.0257L709.703 59.3429L672.743 59.3041L670.245 68.9869ZM707.205 69.0257C714.203 69.0331 720.763 67.535 726.472 63.9739L722.355 56.2926C719.384 58.1462 715.305 59.3488 709.703 59.3429L707.205 69.0257ZM726.472 63.9739C732.837 60.003 736.533 53.7113 738.389 46.5206L728.389 46.5101C726.956 52.0619 724.669 54.8488 722.355 56.2926L726.472 63.9739ZM738.389 46.5206C740.221 39.4226 739.724 33.2187 735.431 29.2551L727.354 36.9234C728.942 38.3898 729.776 41.1367 728.389 46.5101L738.389 46.5206ZM735.431 29.2551C731.564 25.6838 725.78 24.1728 718.781 24.1654L716.283 33.8482C721.884 33.8541 725.341 35.0647 727.354 36.9234L735.431 29.2551ZM718.781 24.1654L681.821 24.1266L679.323 33.8093L716.283 33.8482L718.781 24.1654ZM675.572 28.9627L666.494 64.1402L676.494 64.1507L685.572 28.9732L675.572 28.9627ZM757.368 147.017L752.368 147.012L751.119 151.853L756.119 151.858L757.368 147.017ZM794.1 4.68008L795.349 -0.161303L790.349 -0.16656L789.1 4.67483L794.1 4.68008ZM894.27 4.78539L899.27 4.79064L900.519 -0.0507431L895.519 -0.0559993L894.27 4.78539ZM887.973 29.186L886.724 34.0274L891.724 34.0326L892.973 29.1912L887.973 29.186ZM815.103 29.1094L816.353 24.268L811.353 24.2627L810.103 29.1041L815.103 29.1094ZM806.55 62.2535L801.55 62.2483L800.3 67.0897L805.3 67.0949L806.55 62.2535ZM873.12 62.3235L878.12 62.3288L879.369 57.4874L874.369 57.4821L873.12 62.3235ZM866.823 86.7241L865.574 91.5655L870.574 91.5707L871.823 86.7294L866.823 86.7241ZM800.253 86.6541L801.502 81.8127L796.502 81.8075L795.253 86.6489L800.253 86.6541ZM790.965 122.645L785.965 122.64L784.716 127.481L789.716 127.486L790.965 122.645ZM866.145 122.724L871.145 122.729L872.394 117.888L867.394 117.883L866.145 122.724ZM859.848 147.125L858.599 151.966L863.599 151.971L864.848 147.13L859.848 147.125ZM762.368 147.022L799.1 4.68534L789.1 4.67483L752.368 147.012L762.368 147.022ZM792.851 9.52147L893.021 9.62678L895.519 -0.0559993L795.349 -0.161303L792.851 9.52147ZM889.27 4.78013L882.973 29.1807L892.973 29.1912L899.27 4.79064L889.27 4.78013ZM889.222 24.3446L816.353 24.268L813.854 33.9508L886.724 34.0274L889.222 24.3446ZM810.103 29.1041L801.55 62.2483L811.55 62.2588L820.103 29.1146L810.103 29.1041ZM805.3 67.0949L871.87 67.1649L874.369 57.4821L807.799 57.4121L805.3 67.0949ZM868.12 62.3182L861.823 86.7188L871.823 86.7294L878.12 62.3288L868.12 62.3182ZM868.072 81.8827L801.502 81.8127L799.004 91.4955L865.574 91.5655L868.072 81.8827ZM795.253 86.6489L785.965 122.64L795.965 122.65L805.253 86.6594L795.253 86.6489ZM789.716 127.486L864.896 127.565L867.394 117.883L792.214 117.804L789.716 127.486ZM861.145 122.719L854.848 147.119L864.848 147.13L871.145 122.729L861.145 122.719ZM861.097 142.283L758.618 142.176L756.119 151.858L858.599 151.966L861.097 142.283ZM901.824 142.287L898.369 146.557L898.399 146.575L898.43 146.592L901.824 142.287ZM883.918 114.81L882.602 110.567L877.954 112.74L878.856 116.84L883.918 114.81ZM909.957 102.634L914.932 100.281L913.595 96.0731L908.64 98.3903L909.957 102.634ZM920.406 119.12L924.314 115.17L920.406 119.12ZM962.722 120.385L965.374 123.812L965.421 123.776L965.467 123.738L962.722 120.385ZM970.594 98.8334L965.676 101.353L965.706 101.435L965.741 101.515L970.594 98.8334ZM961.878 91.9089L958.696 96.326L958.759 96.3571L958.824 96.386L961.878 91.9089ZM938.987 84.5626L941.358 79.8535L941.356 79.8531L938.987 84.5626ZM912.84 69.484L917.39 66.2453L912.84 69.484ZM921.917 21.2893L918.374 18.6801L921.917 21.2893ZM943.387 6.46417L944.431 10.8285L944.45 10.8206L944.469 10.8124L943.387 6.46417ZM995.992 5.29912L992.961 9.78628L995.992 5.29912ZM1011.59 16.5022L1007.24 20.0183L1007.26 20.041L1007.28 20.0634L1011.59 16.5022ZM1019.88 31.562L1021.88 35.4428L1025.93 32.9741L1024.89 29.3162L1019.88 31.562ZM994.212 47.1963L989.31 49.7578L991.039 54.2236L996.205 51.0771L994.212 47.1963ZM988.909 37.6312L984.323 40.8154L984.375 40.8962L984.432 40.9739L988.909 37.6312ZM980.088 29.4862L983.491 25.1865L983.491 25.1865L980.088 29.4862ZM947.748 30.2658L949.443 34.3183L949.462 34.3077L949.482 34.297L947.748 30.2658ZM938.458 49.1716L933.402 51.2283L933.438 51.3874L933.487 51.5406L938.458 49.1716ZM945.178 55.6873L941.775 59.987L941.8 60.0013L941.825 60.0152L945.178 55.6873ZM964.657 62.4197L962.248 67.1193L962.263 67.1232L962.278 67.1269L964.657 62.4197ZM995.739 79.5375L991.225 82.8279L991.248 82.8608L991.272 82.8931L995.739 79.5375ZM976.742 139.315L978.839 143.131L978.848 143.125L976.742 139.315ZM935.887 145.413C924.037 145.4 913.846 142.91 905.219 137.982L898.43 146.592C908.355 152.261 920.038 155.082 933.389 155.096L935.887 145.413ZM905.28 138.018C897.189 133.187 891.656 124.935 888.981 112.78L878.856 116.84C881.854 130.455 888.259 140.521 898.369 146.557L905.28 138.018ZM885.235 119.054L911.274 106.878L908.64 98.3903L882.602 110.567L885.235 119.054ZM904.982 104.988C907.386 112.557 911.187 118.643 916.499 123.07L924.314 115.17C920.175 111.722 917.009 106.818 914.932 100.281L904.982 104.988ZM916.499 123.07C922.145 127.774 930.507 129.872 940.945 129.883L943.444 120.2C934.283 120.19 928.119 118.341 924.314 115.17L916.499 123.07ZM940.945 129.883C946.017 129.888 950.586 129.487 954.572 128.583C958.526 127.686 962.275 126.21 965.374 123.812L960.07 116.958C959.144 117.674 957.459 118.531 954.571 119.187C951.714 119.835 948.033 120.205 943.444 120.2L940.945 129.883ZM965.467 123.738C970.844 119.434 974.231 113.888 975.857 107.585L965.857 107.574C964.756 111.844 962.718 114.836 959.976 117.031L965.467 123.738ZM975.857 107.585C976.939 103.393 976.891 99.5082 975.447 96.1523L965.741 101.515C966.398 103.042 966.525 104.988 965.857 107.574L975.857 107.585ZM975.512 96.3134C974.078 92.4679 969.979 89.6717 964.932 87.4318L958.824 96.386C963.577 98.4954 965.289 100.316 965.676 101.353L975.512 96.3134ZM965.06 87.4917C959.942 84.9893 951.96 82.4572 941.358 79.8535L936.616 89.2718C947.085 91.8429 954.364 94.2082 958.696 96.326L965.06 87.4917ZM941.356 79.8531C929.11 76.8506 921.379 72.174 917.39 66.2453L908.291 72.7227C913.614 80.6346 923.314 86.0104 936.618 89.2722L941.356 79.8531ZM917.39 66.2453C913.399 60.3128 912.459 52.8977 914.844 43.6552L904.844 43.6447C901.912 55.0071 902.97 64.8147 908.291 72.7227L917.39 66.2453ZM914.844 43.6552C916.842 35.9146 920.418 29.3902 925.459 23.8986L918.374 18.6801C911.727 25.9222 907.255 34.3048 904.844 43.6447L914.844 43.6552ZM925.459 23.8986C930.555 18.3466 936.826 13.986 944.431 10.8285L942.344 2.0998C933.009 5.97549 924.966 11.4984 918.374 18.6801L925.459 23.8986ZM944.469 10.8124C952.2 7.54635 960.892 5.83365 970.645 5.84391L973.143 -3.83887C962.176 -3.8504 951.863 -1.922 942.305 2.1159L944.469 10.8124ZM970.645 5.84391C979.656 5.85338 987.051 7.20904 992.961 9.78628L999.023 0.811949C991.842 -2.31959 983.172 -3.82833 973.143 -3.83887L970.645 5.84391ZM992.961 9.78628C999.055 12.4438 1003.78 15.8703 1007.24 20.0183L1015.93 12.986C1011.69 7.90539 1006.02 3.86319 999.023 0.811942L992.961 9.78628ZM1007.28 20.0634C1010.98 24.3428 1013.49 28.9278 1014.88 33.8078L1024.89 29.3162C1023.19 23.3453 1020.17 17.8904 1015.89 12.9409L1007.28 20.0634ZM1017.89 27.6812L992.219 43.3155L996.205 51.0771L1021.88 35.4428L1017.89 27.6812ZM999.114 44.6348C997.733 41.0666 995.814 37.6196 993.385 34.2885L984.432 40.9739C986.554 43.885 988.171 46.8147 989.31 49.7578L999.114 44.6348ZM993.494 34.4471C991.072 30.6915 987.711 27.613 983.491 25.1865L976.684 33.786C980.024 35.7064 982.544 38.0579 984.323 40.8154L993.494 34.4471ZM983.491 25.1865C978.94 22.57 973.09 21.3819 966.217 21.3746L963.718 31.0574C969.444 31.0634 973.674 32.0554 976.684 33.786L983.491 25.1865ZM966.217 21.3746C958.945 21.367 952.123 22.8594 946.014 26.2346L949.482 34.297C953.171 32.2586 957.829 31.0512 963.718 31.0574L966.217 21.3746ZM946.053 26.2133C939.368 29.8515 935.276 35.6092 933.509 42.4544L943.509 42.4649C944.611 38.1943 946.678 35.8228 949.443 34.3183L946.053 26.2133ZM933.509 42.4544C932.736 45.4498 932.755 48.389 933.402 51.2283L943.514 47.1149C943.11 45.3429 943.163 43.8074 943.509 42.4649L933.509 42.4544ZM933.487 51.5406C934.602 54.9954 937.814 57.7099 941.775 59.987L948.582 51.3875C944.982 49.3177 943.714 47.6883 943.428 46.8027L933.487 51.5406ZM941.825 60.0152C946.196 62.4391 953.107 64.7853 962.248 67.1193L967.066 57.7202C958.076 55.4248 952.001 53.2828 948.532 51.3594L941.825 60.0152ZM962.278 67.1269C977.253 70.8345 986.602 76.2255 991.225 82.8279L1000.25 76.247C994.234 67.6515 982.861 61.6307 967.036 57.7125L962.278 67.1269ZM991.272 82.8931C996.059 89.3949 997.264 97.387 994.732 107.198L1004.73 107.208C1007.87 95.0588 1006.41 84.6071 1000.21 76.1818L991.272 82.8931ZM994.732 107.198C991.445 119.938 984.678 129.127 974.635 135.505L978.848 143.125C992.253 134.612 1000.81 122.394 1004.73 107.208L994.732 107.198ZM974.644 135.499C964.459 141.946 951.676 145.429 935.887 145.413L933.389 155.096C950.64 155.114 965.926 151.305 978.839 143.131L974.644 135.499ZM1047.13 147.322L1042.13 147.316L1040.88 152.158L1045.88 152.163L1047.13 147.322ZM1077.57 29.3853L1082.57 29.3905L1083.81 24.5492L1078.81 24.5439L1077.57 29.3853ZM1034.31 29.3398L1029.31 29.3346L1028.06 34.1759L1033.06 34.1812L1034.31 29.3398ZM1040.6 4.93922L1041.85 0.097833L1036.85 0.0925767L1035.6 4.93396L1040.6 4.93922ZM1154.42 5.05887L1159.42 5.06413L1160.67 0.222743L1155.67 0.217487L1154.42 5.05887ZM1148.13 29.4595L1146.88 34.3009L1151.88 34.3061L1153.13 29.4647L1148.13 29.4595ZM1105.08 29.4142L1106.32 24.5728L1101.32 24.5676L1100.08 29.409L1105.08 29.4142ZM1074.64 147.35L1073.39 152.192L1078.39 152.197L1079.64 147.356L1074.64 147.35ZM1052.13 147.327L1082.57 29.3905L1072.57 29.38L1042.13 147.316L1052.13 147.327ZM1078.81 24.5439L1035.55 24.4984L1033.06 34.1812L1076.32 34.2267L1078.81 24.5439ZM1039.31 29.3451L1045.6 4.94448L1035.6 4.93396L1029.31 29.3346L1039.31 29.3451ZM1039.35 9.78061L1153.17 9.90026L1155.67 0.217487L1041.85 0.097833L1039.35 9.78061ZM1149.42 5.05362L1143.13 29.4542L1153.13 29.4647L1159.42 5.06413L1149.42 5.05362ZM1149.37 24.6181L1106.32 24.5728L1103.83 34.2556L1146.88 34.3009L1149.37 24.6181ZM1100.08 29.409L1069.64 147.345L1079.64 147.356L1110.08 29.4195L1100.08 29.409ZM1075.89 142.509L1048.38 142.48L1045.88 152.163L1073.39 152.192L1075.89 142.509ZM1136.97 147.416L1131.97 147.411L1130.72 152.252L1135.72 152.257L1136.97 147.416ZM1173.7 5.07914L1174.95 0.237752L1169.95 0.232496L1168.7 5.07388L1173.7 5.07914ZM1201 5.10784L1206 5.1131L1207.25 0.271708L1202.25 0.266451L1201 5.10784ZM1170.56 123.044L1165.56 123.039L1164.31 127.88L1169.31 127.885L1170.56 123.044ZM1245.95 123.123L1250.95 123.129L1252.2 118.287L1247.2 118.282L1245.95 123.123ZM1239.66 147.524L1238.41 152.365L1243.41 152.371L1244.66 147.529L1239.66 147.524ZM1141.97 147.421L1178.7 5.0844L1168.7 5.07388L1131.97 147.411L1141.97 147.421ZM1172.45 9.92053L1199.75 9.94923L1202.25 0.266451L1174.95 0.237752L1172.45 9.92053ZM1196 5.10258L1165.56 123.039L1175.56 123.049L1206 5.1131L1196 5.10258ZM1169.31 127.885L1244.7 127.965L1247.2 118.282L1171.81 118.203L1169.31 127.885ZM1240.95 123.118L1234.66 147.519L1244.66 147.529L1250.95 123.129L1240.95 123.118ZM1240.91 142.683L1138.22 142.575L1135.72 152.257L1238.41 152.365L1240.91 142.683ZM1257.14 147.542L1252.14 147.537L1250.89 152.378L1255.89 152.384L1257.14 147.542ZM1293.88 5.20548L1295.12 0.364087L1290.12 0.358831L1288.88 5.20022L1293.88 5.20548ZM1321.18 5.23417L1326.18 5.23943L1327.42 0.398043L1322.42 0.392787L1321.18 5.23417ZM1284.44 147.571L1283.19 152.412L1288.19 152.418L1289.44 147.576L1284.44 147.571ZM1262.14 147.548L1298.88 5.21073L1288.88 5.20022L1252.14 147.537L1262.14 147.548ZM1292.63 10.0469L1319.93 10.0756L1322.42 0.392787L1295.12 0.364087L1292.63 10.0469ZM1316.18 5.22892L1279.44 147.566L1289.44 147.576L1326.18 5.23943L1316.18 5.22892ZM1285.69 142.73L1258.39 142.701L1255.89 152.384L1283.19 152.412L1285.69 142.73ZM1312.51 147.6L1307.51 147.595L1306.26 152.437L1311.26 152.442L1312.51 147.6ZM1349.25 5.26368L1350.5 0.422296L1345.5 0.41704L1344.25 5.25843L1349.25 5.26368ZM1376.55 5.29238L1381.41 2.62505L1380.48 0.45382L1377.8 0.450996L1376.55 5.29238ZM1417.46 101.541L1412.6 104.208L1418.3 117.635L1422.46 101.546L1417.46 101.541ZM1442.28 5.36148L1443.53 0.520095L1438.53 0.514838L1437.28 5.35623L1442.28 5.36148ZM1469.79 5.3904L1474.79 5.39566L1476.04 0.554271L1471.04 0.549015L1469.79 5.3904ZM1433.05 147.727L1431.8 152.569L1436.8 152.574L1438.05 147.732L1433.05 147.727ZM1407.01 147.7L1402.15 150.346L1403.06 152.538L1405.76 152.541L1407.01 147.7ZM1365.47 48.1968L1370.34 45.5501L1364.67 31.9517L1360.47 48.1915L1365.47 48.1968ZM1339.81 147.629L1338.56 152.471L1343.56 152.476L1344.81 147.634L1339.81 147.629ZM1317.51 147.606L1354.25 5.26894L1344.25 5.25843L1307.51 147.595L1317.51 147.606ZM1348 10.1051L1375.3 10.1338L1377.8 0.450996L1350.5 0.422296L1348 10.1051ZM1371.69 7.95971L1412.6 104.208L1422.32 98.8732L1381.41 2.62505L1371.69 7.95971ZM1422.46 101.546L1447.28 5.36674L1437.28 5.35623L1412.46 101.535L1422.46 101.546ZM1441.03 10.2029L1468.54 10.2318L1471.04 0.549015L1443.53 0.520095L1441.03 10.2029ZM1464.79 5.38515L1428.05 147.722L1438.05 147.732L1474.79 5.39566L1464.79 5.38515ZM1434.3 142.886L1408.26 142.858L1405.76 152.541L1431.8 152.569L1434.3 142.886ZM1411.88 145.053L1370.34 45.5501L1360.61 50.8434L1402.15 150.346L1411.88 145.053ZM1360.47 48.1915L1334.81 147.624L1344.81 147.634L1370.47 48.202L1360.47 48.1915ZM1341.06 142.788L1313.76 142.759L1311.26 152.442L1338.56 152.471L1341.06 142.788ZM1488.08 142.09L1484.39 146.209L1484.4 146.216L1484.41 146.224L1488.08 142.09ZM1470.59 116.241L1465.56 118.38L1465.57 118.412L1465.57 118.443L1470.59 116.241ZM1491.06 36.9388L1487.16 34.7481L1487.15 34.7585L1487.15 34.7689L1491.06 36.9388ZM1521.93 10.9368L1523.49 15.0609L1523.5 15.0561L1523.5 15.0513L1521.93 10.9368ZM1589.18 7.54985L1586.05 11.9908L1586.07 12.003L1586.1 12.0148L1589.18 7.54985ZM1608.66 21.6045L1611.77 24.642L1615.54 21.1777L1613.01 18.1042L1608.66 21.6045ZM1586.08 42.3269L1581.5 45.511L1584.3 49.8586L1589.2 45.3644L1586.08 42.3269ZM1573.06 31.7367L1569.88 36.1548L1569.92 36.1725L1569.96 36.1895L1573.06 31.7367ZM1530.12 33.7255L1532.01 37.6682L1532.02 37.662L1532.03 37.6558L1530.12 33.7255ZM1512.06 50.7916L1507.95 48.8896L1507.93 48.9247L1507.9 48.9601L1512.06 50.7916ZM1498.78 102.236L1493.68 104.058L1493.69 104.093L1493.7 104.129L1498.78 102.236ZM1507.97 119.534L1504 123.426L1504.04 123.465L1504.09 123.502L1507.97 119.534ZM1543.99 124.047L1544.12 128.715L1544.2 128.695L1544.28 128.672L1543.99 124.047ZM1555.43 119.584L1557.11 123.646L1559.76 122.217L1560.43 119.589L1555.43 119.584ZM1562.52 92.1335L1567.52 92.1388L1568.77 87.2974L1563.77 87.2921L1562.52 92.1335ZM1540.26 92.1101L1535.26 92.1048L1534.01 96.9462L1539.01 96.9515L1540.26 92.1101ZM1546.56 67.7095L1547.8 62.8681L1542.8 62.8629L1541.56 67.7042L1546.56 67.7095ZM1596.54 67.762L1601.54 67.7673L1602.78 62.9259L1597.78 62.9207L1596.54 67.762ZM1578.64 137.1L1580.38 141.132L1582.97 139.697L1583.64 137.106L1578.64 137.1ZM1550.92 147.648L1550.85 142.966L1550.84 142.968L1550.83 142.971L1550.92 147.648ZM1522.46 146.436C1509.98 146.423 1499.8 143.561 1491.75 137.956L1484.41 146.224C1493.93 152.841 1505.83 156.104 1519.96 156.119L1522.46 146.436ZM1491.77 137.972C1483.83 132.361 1478.43 124.433 1475.61 114.038L1465.57 118.443C1468.78 130.292 1475.04 139.598 1484.39 146.209L1491.77 137.972ZM1475.63 114.101C1472.99 103.637 1473.45 91.1788 1477.22 76.5859L1467.22 76.5754C1463.15 92.3478 1462.52 106.33 1465.56 118.38L1475.63 114.101ZM1477.22 76.5859C1481.02 61.8478 1486.99 49.4083 1494.97 39.1086L1487.15 34.7689C1477.91 46.6888 1471.32 60.6772 1467.22 76.5754L1477.22 76.5859ZM1494.96 39.1294C1503.17 28.6106 1512.67 20.643 1523.49 15.0609L1520.37 6.81281C1507.59 13.4095 1496.51 22.7765 1487.16 34.7481L1494.96 39.1294ZM1523.5 15.0513C1534.48 9.34529 1546.13 6.44888 1558.58 6.46198L1561.08 -3.2208C1546.93 -3.23567 1533.31 0.0787553 1520.35 6.82235L1523.5 15.0513ZM1558.58 6.46198C1569.16 6.4731 1578.29 8.33745 1586.05 11.9908L1592.31 3.10888C1583.33 -1.1199 1572.9 -3.20838 1561.08 -3.2208L1558.58 6.46198ZM1586.1 12.0148C1594.1 15.6408 1600.12 20.0291 1604.3 25.1047L1613.01 18.1042C1608.02 12.0514 1601.06 7.06993 1592.26 3.08487L1586.1 12.0148ZM1605.54 18.567L1582.97 39.2894L1589.2 45.3644L1611.77 24.642L1605.54 18.567ZM1590.67 39.1427C1587.45 34.1523 1582.55 30.2313 1576.17 27.284L1569.96 36.1895C1575.34 38.6784 1579.12 41.8174 1581.5 45.511L1590.67 39.1427ZM1576.24 27.3186C1569.81 24.1783 1562.52 22.6117 1554.41 22.6032L1551.92 32.2859C1558.65 32.293 1564.62 33.5878 1569.88 36.1548L1576.24 27.3186ZM1554.41 22.6032C1545.23 22.5935 1536.43 24.9392 1528.21 29.7952L1532.03 37.6558C1538.02 34.1198 1544.58 32.2782 1551.92 32.2859L1554.41 22.6032ZM1528.23 29.7829C1520.3 34.4278 1513.55 40.8693 1507.95 48.8896L1516.17 52.6936C1520.79 46.0802 1526.08 41.1445 1532.01 37.6682L1528.23 29.7829ZM1507.9 48.9601C1502.45 56.9827 1498.45 66.2355 1495.78 76.6054L1505.78 76.616C1508.21 67.1943 1511.73 59.2343 1516.22 52.6231L1507.9 48.9601ZM1495.78 76.6054C1493.13 86.8495 1492.38 96.0355 1493.68 104.058L1503.89 100.414C1502.81 93.7901 1503.38 85.8924 1505.78 76.616L1495.78 76.6054ZM1493.7 104.129C1495.15 112.146 1498.55 118.642 1504 123.426L1511.95 115.642C1507.81 112.009 1505.08 106.973 1503.87 100.344L1493.7 104.129ZM1504.09 123.502C1509.84 128.212 1517.42 130.489 1526.57 130.498L1529.07 120.816C1521.7 120.808 1516.05 119.002 1511.86 115.567L1504.09 123.502ZM1526.57 130.498C1533.25 130.505 1539.14 129.954 1544.12 128.715L1543.86 119.378C1540.16 120.3 1535.27 120.822 1529.07 120.816L1526.57 130.498ZM1544.28 128.672C1549 127.359 1553.31 125.703 1557.11 123.646L1553.76 115.522C1551.05 116.984 1547.73 118.303 1543.7 119.421L1544.28 128.672ZM1560.43 119.589L1567.52 92.1388L1557.52 92.1282L1550.43 119.579L1560.43 119.589ZM1563.77 87.2921L1541.51 87.2687L1539.01 96.9515L1561.27 96.9749L1563.77 87.2921ZM1545.26 92.1154L1551.56 67.7148L1541.56 67.7042L1535.26 92.1048L1545.26 92.1154ZM1545.31 72.5509L1595.29 72.6034L1597.78 62.9207L1547.8 62.8681L1545.31 72.5509ZM1591.54 67.7568L1573.64 137.095L1583.64 137.106L1601.54 67.7673L1591.54 67.7568ZM1576.91 133.069C1569.18 137.336 1560.52 140.652 1550.85 142.966L1550.99 152.329C1561.63 149.783 1571.44 146.068 1580.38 141.132L1576.91 133.069ZM1550.83 142.971C1541.28 145.29 1531.82 146.446 1522.46 146.436L1519.96 156.119C1530.19 156.13 1540.55 154.865 1551.01 152.325L1550.83 142.971Z" fill="url(#paint0_linear_401_1067)" mask="url(#path-1-outside-1_401_1067)"/>
</g>
<defs>
<linearGradient id="paint0_linear_401_1067" x1="783.99" y1="182.082" x2="1012.61" y2="2.96039" gradientUnits="userSpaceOnUse">
<stop stop-color="#FF0000"/>
<stop offset="1" stop-color="white"/>
</linearGradient>
</defs>
</svg>
