<svg width="1311" height="159" viewBox="0 0 1311 159" fill="none" xmlns="http://www.w3.org/2000/svg">
<g opacity="0.8">
<mask id="path-1-outside-1_401_1066" maskUnits="userSpaceOnUse" x="-5.96753" y="-5.10548" width="1324.23" height="168.859" fill="black">
<rect fill="white" x="-5.96753" y="-5.10548" width="1324.23" height="168.859"/>
<path d="M1.44128 153.697L39.9223 4.58271L146.842 4.69511L140.246 30.2576L61.9256 30.1753L52.965 64.8977L124.685 64.9731L118.088 90.5357L46.3682 90.4603L30.0413 153.728L1.44128 153.697ZM126.91 153.829L165.391 4.71461L270.331 4.82493L263.734 30.3875L187.394 30.3072L178.434 65.0296L248.174 65.103L241.577 90.6655L171.837 90.5922L162.107 128.297L240.867 128.38L234.27 153.942L126.91 153.829ZM256.246 153.965L294.727 4.85058L345.547 4.904C360.507 4.91973 372.955 7.56079 382.893 12.8272C392.83 18.0936 399.541 26.1976 403.026 37.1393C406.511 48.0811 406.017 62.2148 401.546 79.5405C397.148 96.5822 390.367 110.638 381.202 121.709C372.073 132.637 361.166 140.794 348.48 146.178C335.83 151.421 322.026 154.034 307.066 154.019L256.246 153.965ZM291.443 128.433L311.463 128.454C325.836 128.469 338.375 124.505 349.081 116.561C359.787 108.617 367.302 96.2667 371.626 79.509C375.987 62.6094 374.849 50.2496 368.212 42.4297C361.611 34.4678 351.123 30.4793 336.75 30.4642L316.73 30.4432L291.443 128.433ZM404.273 154.121L442.754 5.00619L547.694 5.11651L541.097 30.679L464.757 30.5988L455.797 65.3212L525.537 65.3945L518.94 90.9571L449.2 90.8838L439.47 128.588L518.23 128.671L511.633 154.234L404.273 154.121ZM533.609 154.257L572.09 5.14216L643.37 5.21709C653.05 5.22727 661.043 6.6562 667.35 9.50389C673.804 12.3517 678.113 16.973 680.277 23.3676C682.588 29.7624 682.351 38.3563 679.566 49.1494C676.121 62.4987 670.512 72.5785 662.739 79.3889C655.15 86.0574 645.911 90.3093 635.021 92.1445L650.209 154.379L616.989 154.345L605.431 93.3919L577.931 93.363L562.209 154.287L533.609 154.257ZM584.583 67.5874L623.303 67.6281C629.903 67.635 635.476 66.2204 640.022 63.3841C644.569 60.5478 647.703 55.7924 649.426 49.1177C651.111 42.5851 650.414 37.8966 647.334 35.0523C644.253 32.208 639.413 30.7824 632.813 30.7755L594.093 30.7348L584.583 67.5874ZM661.566 154.391L757.907 5.3375L783.207 5.3641L802.586 154.54L770.246 154.506L767.548 124.885L711.008 124.825L693.026 154.425L661.566 154.391ZM726.844 99.2726L765.124 99.3129L760.167 45.1856L726.844 99.2726ZM833.302 154.572L865.186 31.0197L819.866 30.9721L826.463 5.40957L945.703 5.53492L939.106 31.0974L894.006 31.05L862.122 154.602L833.302 154.572ZM927.417 154.671L965.898 5.55615L994.498 5.58622L956.017 154.701L927.417 154.671ZM1049.61 158.422C1035.68 158.407 1024.04 155.199 1014.68 148.796C1005.33 142.394 999.007 133.367 995.706 121.715C992.588 109.922 993.081 96.0722 997.186 80.1666C1001.33 64.1191 1007.98 50.2759 1017.15 38.6373C1026.49 26.8567 1037.49 17.7769 1050.14 11.3978C1062.83 4.87676 1076.14 1.62354 1090.07 1.63819C1104 1.65284 1115.55 4.93219 1124.72 11.4762C1134.07 17.8784 1140.31 26.9764 1143.43 38.77C1146.73 50.4218 1146.31 64.2715 1142.17 80.3191C1138.06 96.2246 1131.33 110.068 1121.99 121.848C1112.82 133.487 1101.91 142.496 1089.26 148.875C1076.76 155.254 1063.54 158.436 1049.61 158.422ZM1056.54 131.581C1065.34 131.59 1073.44 129.468 1080.85 125.214C1088.44 120.819 1094.91 114.788 1100.26 107.123C1105.76 99.4579 1109.83 90.5128 1112.47 80.2878C1115.14 69.9208 1115.71 60.9011 1114.17 53.2286C1112.77 45.5563 1109.4 39.5865 1104.04 35.3193C1098.87 30.9103 1091.89 28.7011 1083.09 28.6919C1074.44 28.6828 1066.31 30.876 1058.72 35.2717C1051.32 39.5255 1044.87 45.4849 1039.37 53.15C1033.87 60.815 1029.78 69.8311 1027.11 80.1981C1024.47 90.4231 1023.92 99.3718 1025.46 107.044C1027 114.717 1030.36 120.758 1035.53 125.167C1040.88 129.434 1047.88 131.572 1056.54 131.581ZM1145.05 154.9L1183.53 5.78494L1212.13 5.81501L1254.99 106.646L1280.99 5.8874L1309.81 5.91769L1271.33 155.032L1244.05 155.004L1200.54 50.7625L1173.65 154.93L1145.05 154.9Z"/>
</mask>
<path d="M1.44128 153.697L-3.55871 153.692L-4.8081 158.534L0.1919 158.539L1.44128 153.697ZM39.9223 4.58272L41.1717 -0.258671L36.1717 -0.263928L34.9223 4.57746L39.9223 4.58272ZM146.842 4.69512L151.842 4.70037L153.092 -0.141015L148.092 -0.146271L146.842 4.69512ZM140.246 30.2576L138.996 35.099L143.996 35.1043L145.246 30.2629L140.246 30.2576ZM61.9256 30.1753L63.175 25.3339L58.175 25.3287L56.9256 30.1701L61.9256 30.1753ZM52.965 64.8977L47.965 64.8925L46.7156 69.7339L51.7156 69.7391L52.965 64.8977ZM124.685 64.9731L129.685 64.9784L130.934 60.137L125.934 60.1318L124.685 64.9731ZM118.088 90.5357L116.839 95.3771L121.839 95.3823L123.088 90.5409L118.088 90.5357ZM46.3682 90.4603L47.6176 85.6189L42.6176 85.6136L41.3682 90.455L46.3682 90.4603ZM30.0413 153.728L28.7919 158.569L33.7919 158.574L35.0413 153.733L30.0413 153.728ZM6.44128 153.703L44.9223 4.58797L34.9223 4.57746L-3.55871 153.692L6.44128 153.703ZM38.673 9.4241L145.593 9.5365L148.092 -0.146271L41.1717 -0.258671L38.673 9.4241ZM141.842 4.68986L135.246 30.2524L145.246 30.2629L151.842 4.70037L141.842 4.68986ZM141.495 25.4163L63.175 25.3339L60.6762 35.0167L138.996 35.099L141.495 25.4163ZM56.9256 30.1701L47.965 64.8925L57.965 64.903L66.9256 30.1806L56.9256 30.1701ZM51.7156 69.7391L123.436 69.8145L125.934 60.1318L54.2144 60.0564L51.7156 69.7391ZM119.685 64.9679L113.088 90.5304L123.088 90.5409L129.685 64.9784L119.685 64.9679ZM119.338 85.6943L47.6176 85.6189L45.1189 95.3017L116.839 95.3771L119.338 85.6943ZM41.3682 90.455L25.0413 153.722L35.0413 153.733L51.3682 90.4655L41.3682 90.455ZM31.2907 148.886L2.69067 148.856L0.1919 158.539L28.7919 158.569L31.2907 148.886ZM126.91 153.829L121.91 153.824L120.661 158.666L125.661 158.671L126.91 153.829ZM165.391 4.71462L166.64 -0.126772L161.64 -0.132028L160.391 4.70936L165.391 4.71462ZM270.331 4.82493L275.331 4.83019L276.58 -0.0111971L271.58 -0.0164534L270.331 4.82493ZM263.734 30.3875L262.485 35.2289L267.485 35.2341L268.734 30.3927L263.734 30.3875ZM187.394 30.3072L188.644 25.4658L183.644 25.4606L182.394 30.302L187.394 30.3072ZM178.434 65.0296L173.434 65.0244L172.184 69.8658L177.184 69.871L178.434 65.0296ZM248.174 65.103L253.174 65.1082L254.423 60.2668L249.423 60.2616L248.174 65.103ZM241.577 90.6655L240.327 95.5069L245.327 95.5121L246.577 90.6707L241.577 90.6655ZM171.837 90.5922L173.086 85.7508L168.086 85.7455L166.837 90.5869L171.837 90.5922ZM162.107 128.297L157.107 128.292L155.857 133.133L160.857 133.138L162.107 128.297ZM240.867 128.38L245.867 128.385L247.116 123.544L242.116 123.538L240.867 128.38ZM234.27 153.942L233.021 158.784L238.021 158.789L239.27 153.947L234.27 153.942ZM131.91 153.835L170.391 4.71987L160.391 4.70936L121.91 153.824L131.91 153.835ZM164.142 9.556L269.082 9.66632L271.58 -0.0164534L166.64 -0.126772L164.142 9.556ZM265.331 4.81968L258.734 30.3822L268.734 30.3927L275.331 4.83019L265.331 4.81968ZM264.984 25.5461L188.644 25.4658L186.145 35.1486L262.485 35.2289L264.984 25.5461ZM182.394 30.302L173.434 65.0244L183.434 65.0349L192.394 30.3125L182.394 30.302ZM177.184 69.871L246.924 69.9443L249.423 60.2616L179.683 60.1883L177.184 69.871ZM243.174 65.0977L236.577 90.6602L246.577 90.6707L253.174 65.1082L243.174 65.0977ZM242.826 85.8241L173.086 85.7508L170.588 95.4336L240.327 95.5069L242.826 85.8241ZM166.837 90.5869L157.107 128.292L167.107 128.302L176.837 90.5974L166.837 90.5869ZM160.857 133.138L239.617 133.221L242.116 123.538L163.356 123.456L160.857 133.138ZM235.867 128.374L229.27 153.937L239.27 153.947L245.867 128.385L235.867 128.374ZM235.519 149.101L128.159 148.988L125.661 158.671L233.021 158.784L235.519 149.101ZM256.246 153.965L251.246 153.96L249.996 158.801L254.996 158.807L256.246 153.965ZM294.727 4.85058L295.976 0.00919293L290.976 0.00393666L289.727 4.84532L294.727 4.85058ZM382.893 12.8272L386.185 8.46572L382.893 12.8272ZM403.026 37.1393L398.051 39.4953L403.026 37.1393ZM381.202 121.709L384.958 124.074L384.968 124.062L384.977 124.051L381.202 121.709ZM348.48 146.178L349.519 150.544L349.546 150.533L349.572 150.522L348.48 146.178ZM291.443 128.433L286.443 128.428L285.193 133.269L290.193 133.274L291.443 128.433ZM349.081 116.561L351.617 120.076L349.081 116.561ZM368.212 42.4297L363.863 45.9376L363.876 45.9526L363.888 45.9674L368.212 42.4297ZM316.73 30.4432L317.979 25.6018L312.979 25.5965L311.73 30.4379L316.73 30.4432ZM261.246 153.971L299.727 4.85584L289.727 4.84532L251.246 153.96L261.246 153.971ZM293.477 9.69197L344.297 9.74539L346.796 0.0626177L295.976 0.00919293L293.477 9.69197ZM344.297 9.74539C358.652 9.76048 370.363 12.2927 379.601 17.1886L386.185 8.46572C375.548 2.8289 362.362 0.0789814 346.796 0.0626177L344.297 9.74539ZM379.601 17.1886C388.693 22.0071 394.835 29.3953 398.051 39.4953L408 34.7834C404.248 22.9999 396.967 14.18 386.185 8.46572L379.601 17.1886ZM398.051 39.4953C401.235 49.4909 400.882 62.7344 396.546 79.5352L406.546 79.5457C411.153 61.6951 411.787 46.6712 408 34.7834L398.051 39.4953ZM396.546 79.5352C392.289 96.0319 385.829 109.217 377.426 119.367L384.977 124.051C394.905 112.059 402.008 97.1324 406.546 79.5457L396.546 79.5352ZM377.445 119.344C369.011 129.441 359.024 136.895 347.387 141.835L349.572 150.522C363.307 144.692 375.135 135.833 384.958 124.074L377.445 119.344ZM347.44 141.812C335.681 146.686 322.669 149.192 308.315 149.177L305.816 158.86C321.382 158.877 335.98 156.156 349.519 150.544L347.44 141.812ZM308.315 149.177L257.495 149.124L254.996 158.807L305.816 158.86L308.315 149.177ZM290.193 133.274L310.213 133.295L312.712 123.613L292.692 123.591L290.193 133.274ZM310.213 133.295C325.589 133.311 339.534 129.041 351.617 120.076L346.545 113.046C337.216 119.968 326.082 123.627 312.712 123.613L310.213 133.295ZM351.617 120.076C364.019 110.874 372.115 96.9958 376.626 79.5143L366.626 79.5038C362.489 95.5376 355.555 106.361 346.545 113.046L351.617 120.076ZM376.626 79.5143C381.168 61.9137 380.258 47.9903 372.535 38.892L363.888 45.9674C369.441 52.5089 370.807 63.3051 366.626 79.5038L376.626 79.5143ZM372.56 38.9218C365.11 29.936 353.376 25.639 337.999 25.6228L335.501 35.3056C348.871 35.3197 358.111 38.9997 363.863 45.9376L372.56 38.9218ZM337.999 25.6228L317.979 25.6018L315.481 35.2846L335.501 35.3056L337.999 25.6228ZM311.73 30.4379L286.443 128.428L296.443 128.438L321.73 30.4484L311.73 30.4379ZM404.273 154.121L399.273 154.116L398.024 158.957L403.024 158.962L404.273 154.121ZM442.754 5.0062L444.004 0.164807L439.004 0.159551L437.754 5.00094L442.754 5.0062ZM547.694 5.11651L552.694 5.12177L553.943 0.280382L548.943 0.275126L547.694 5.11651ZM541.097 30.679L539.848 35.5204L544.848 35.5257L546.097 30.6843L541.097 30.679ZM464.757 30.5988L466.007 25.7574L461.007 25.7521L459.757 30.5935L464.757 30.5988ZM455.797 65.3212L450.797 65.316L449.547 70.1574L454.547 70.1626L455.797 65.3212ZM525.537 65.3945L530.537 65.3998L531.786 60.5584L526.786 60.5532L525.537 65.3945ZM518.94 90.9571L517.691 95.7984L522.691 95.8037L523.94 90.9623L518.94 90.9571ZM449.2 90.8837L450.449 86.0424L445.449 86.0371L444.2 90.8785L449.2 90.8837ZM439.47 128.588L434.47 128.583L433.22 133.425L438.22 133.43L439.47 128.588ZM518.23 128.671L523.23 128.677L524.479 123.835L519.479 123.83L518.23 128.671ZM511.633 154.234L510.384 159.075L515.384 159.08L516.633 154.239L511.633 154.234ZM409.273 154.126L447.754 5.01145L437.754 5.00094L399.273 154.116L409.273 154.126ZM441.505 9.84758L546.445 9.9579L548.943 0.275126L444.004 0.164807L441.505 9.84758ZM542.694 5.11126L536.097 30.6738L546.097 30.6843L552.694 5.12177L542.694 5.11126ZM542.347 25.8377L466.007 25.7574L463.508 35.4402L539.848 35.5204L542.347 25.8377ZM459.757 30.5935L450.797 65.316L460.797 65.3265L469.757 30.604L459.757 30.5935ZM454.547 70.1626L524.287 70.2359L526.786 60.5532L457.046 60.4798L454.547 70.1626ZM520.537 65.3893L513.94 90.9518L523.94 90.9623L530.537 65.3998L520.537 65.3893ZM520.189 86.1157L450.449 86.0424L447.951 95.7251L517.691 95.7984L520.189 86.1157ZM444.2 90.8785L434.47 128.583L444.47 128.594L454.2 90.889L444.2 90.8785ZM438.22 133.43L516.98 133.513L519.479 123.83L440.719 123.747L438.22 133.43ZM513.23 128.666L506.633 154.229L516.633 154.239L523.23 128.677L513.23 128.666ZM512.882 149.392L405.522 149.28L403.024 158.962L510.384 159.075L512.882 149.392ZM533.609 154.257L528.609 154.252L527.36 159.093L532.36 159.098L533.609 154.257ZM572.09 5.14216L573.339 0.300772L568.339 0.295516L567.09 5.1369L572.09 5.14216ZM667.35 9.50389L664.274 13.9708L664.289 13.9776L664.304 13.9843L667.35 9.50389ZM680.277 23.3676L675.323 25.7851L675.335 25.8197L675.347 25.854L680.277 23.3676ZM662.739 79.3889L659.749 76.2405L659.741 76.2471L662.739 79.3889ZM635.021 92.1445L635.349 87.3813L628.579 88.5224L629.978 94.2571L635.021 92.1445ZM650.209 154.379L648.96 159.221L656.951 159.229L655.252 152.267L650.209 154.379ZM616.989 154.345L611.904 156.266L612.458 159.183L615.739 159.186L616.989 154.345ZM605.431 93.3919L610.516 91.4708L609.962 88.5539L606.681 88.5505L605.431 93.3919ZM577.931 93.363L579.181 88.5216L574.181 88.5163L572.931 93.3577L577.931 93.363ZM562.209 154.287L560.96 159.128L565.96 159.134L567.209 154.292L562.209 154.287ZM584.583 67.5874L579.583 67.5821L578.334 72.4235L583.334 72.4288L584.583 67.5874ZM640.022 63.3841L642.081 67.2247L640.022 63.3841ZM647.334 35.0523L643.295 38.8865L647.334 35.0523ZM594.093 30.7348L595.343 25.8934L590.343 25.8881L589.093 30.7295L594.093 30.7348ZM538.609 154.262L577.09 5.14742L567.09 5.1369L528.609 154.252L538.609 154.262ZM570.841 9.98355L642.121 10.0585L644.619 0.375706L573.339 0.300772L570.841 9.98355ZM642.121 10.0585C651.311 10.0681 658.638 11.4263 664.274 13.9708L670.427 5.03693C663.448 1.88611 654.789 0.386396 644.619 0.375706L642.121 10.0585ZM664.304 13.9843C669.854 16.4333 673.48 20.3391 675.323 25.7851L685.232 20.9501C682.746 13.6068 677.754 8.27011 670.397 5.02348L664.304 13.9843ZM675.347 25.854C677.29 31.2314 677.22 38.8583 674.566 49.1441L684.566 49.1546C687.482 37.8544 687.886 28.2934 685.207 20.8812L675.347 25.854ZM674.566 49.1441C671.277 61.8869 666.133 70.6468 659.749 76.2405L665.73 82.5373C674.891 74.5104 680.964 63.1105 684.566 49.1546L674.566 49.1441ZM659.741 76.2471C653.277 81.9273 645.264 85.7104 635.349 87.3813L634.693 96.9077C646.557 94.9082 657.023 90.1875 665.737 82.5307L659.741 76.2471ZM629.978 94.2571L645.166 156.492L655.252 152.267L640.064 90.0319L629.978 94.2571ZM651.458 149.538L618.238 149.503L615.739 159.186L648.96 159.221L651.458 149.538ZM622.073 152.424L610.516 91.4708L600.347 95.3129L611.904 156.266L622.073 152.424ZM606.681 88.5505L579.181 88.5216L576.682 98.2043L604.182 98.2333L606.681 88.5505ZM572.931 93.3577L557.209 154.282L567.209 154.292L582.931 93.3682L572.931 93.3577ZM563.458 149.446L534.858 149.416L532.36 159.098L560.96 159.128L563.458 149.446ZM583.334 72.4288L622.053 72.4695L624.552 62.7867L585.832 62.746L583.334 72.4288ZM622.053 72.4695C629.352 72.4772 636.166 70.9148 642.081 67.2247L637.964 59.5435C634.786 61.526 630.454 62.7929 624.552 62.7867L622.053 72.4695ZM642.081 67.2247C648.652 63.1249 652.492 56.617 654.426 49.123L644.426 49.1124C642.915 54.9677 640.485 57.9708 637.964 59.5435L642.081 67.2247ZM654.426 49.123C656.334 41.728 655.805 35.311 651.373 31.2181L643.295 38.8865C645.023 40.4822 645.889 43.4421 644.426 49.1124L654.426 49.123ZM651.373 31.2181C647.365 27.5176 641.361 25.9417 634.063 25.9341L631.564 35.6168C637.465 35.6231 641.142 36.8985 643.295 38.8865L651.373 31.2181ZM634.063 25.9341L595.343 25.8934L592.844 35.5761L631.564 35.6168L634.063 25.9341ZM589.093 30.7295L579.583 67.5821L589.583 67.5927L599.093 30.74L589.093 30.7295ZM661.566 154.391L657.325 152.684L653.097 159.225L660.317 159.233L661.566 154.391ZM757.907 5.3375L759.157 0.496113L755.694 0.492473L753.666 3.62981L757.907 5.3375ZM783.207 5.3641L788.327 3.66625L787.919 0.52635L784.457 0.52271L783.207 5.3641ZM802.586 154.54L801.337 159.381L808.557 159.389L807.706 152.842L802.586 154.54ZM770.246 154.506L765.11 156.051L765.409 159.343L768.997 159.347L770.246 154.506ZM767.548 124.885L772.684 123.339L772.384 120.047L768.797 120.043L767.548 124.885ZM711.008 124.825L712.257 119.984L708.669 119.98L706.671 123.27L711.008 124.825ZM693.026 154.425L691.777 159.266L695.364 159.27L697.363 155.98L693.026 154.425ZM726.844 99.2726L722.529 97.6828L718.571 104.107L725.595 104.114L726.844 99.2726ZM765.124 99.3129L763.875 104.154L770.847 104.162L770.261 97.7652L765.124 99.3129ZM760.167 45.1856L765.304 43.638L764.077 30.2448L755.852 43.5958L760.167 45.1856ZM665.807 156.099L762.148 7.04518L753.666 3.62981L657.325 152.684L665.807 156.099ZM756.658 10.1789L781.958 10.2055L784.457 0.52271L759.157 0.496113L756.658 10.1789ZM778.087 7.06194L797.466 156.238L807.706 152.842L788.327 3.66625L778.087 7.06194ZM803.836 149.698L771.496 149.664L768.997 159.347L801.337 159.381L803.836 149.698ZM775.383 152.96L772.684 123.339L762.411 126.431L765.11 156.051L775.383 152.96ZM768.797 120.043L712.257 119.984L709.758 129.667L766.298 129.726L768.797 120.043ZM706.671 123.27L688.69 152.869L697.363 155.98L715.344 126.381L706.671 123.27ZM694.276 149.583L662.816 149.55L660.317 159.233L691.777 159.266L694.276 149.583ZM725.595 104.114L763.875 104.154L766.374 94.4715L728.094 94.4312L725.595 104.114ZM770.261 97.7652L765.304 43.638L755.031 46.7333L759.988 100.861L770.261 97.7652ZM755.852 43.5958L722.529 97.6828L731.16 100.863L764.483 46.7755L755.852 43.5958ZM833.302 154.572L828.302 154.567L827.053 159.408L832.053 159.413L833.302 154.572ZM865.186 31.0197L870.186 31.025L871.436 26.1836L866.436 26.1784L865.186 31.0197ZM819.866 30.9721L814.866 30.9668L813.617 35.8082L818.617 35.8135L819.866 30.9721ZM826.463 5.40957L827.713 0.568183L822.713 0.562927L821.463 5.40431L826.463 5.40957ZM945.703 5.53492L950.703 5.54018L951.952 0.698791L946.952 0.693534L945.703 5.53492ZM939.106 31.0975L937.857 35.9388L942.857 35.9441L944.106 31.1027L939.106 31.0975ZM894.006 31.05L895.256 26.2087L890.256 26.2034L889.006 31.0448L894.006 31.05ZM862.122 154.602L860.873 159.444L865.873 159.449L867.122 154.608L862.122 154.602ZM838.302 154.577L870.186 31.025L860.186 31.0145L828.302 154.567L838.302 154.577ZM866.436 26.1784L821.116 26.1307L818.617 35.8135L863.937 35.8611L866.436 26.1784ZM824.866 30.9774L831.463 5.41483L821.463 5.40431L814.866 30.9668L824.866 30.9774ZM825.214 10.251L944.454 10.3763L946.952 0.693534L827.713 0.568183L825.214 10.251ZM940.703 5.52967L934.106 31.0922L944.106 31.1027L950.703 5.54018L940.703 5.52967ZM940.356 26.2561L895.256 26.2087L892.757 35.8914L937.857 35.9388L940.356 26.2561ZM889.006 31.0448L857.122 154.597L867.122 154.608L899.006 31.0553L889.006 31.0448ZM863.371 149.761L834.551 149.731L832.053 159.413L860.873 159.444L863.371 149.761ZM927.417 154.671L922.417 154.666L921.168 159.507L926.168 159.512L927.417 154.671ZM965.898 5.55615L967.148 0.714765L962.148 0.709509L960.898 5.5509L965.898 5.55615ZM994.498 5.58622L999.498 5.59147L1000.75 0.750087L995.748 0.744831L994.498 5.58622ZM956.017 154.701L954.768 159.542L959.768 159.548L961.017 154.706L956.017 154.701ZM932.417 154.676L970.898 5.56141L960.898 5.5509L922.417 154.666L932.417 154.676ZM964.649 10.3975L993.249 10.4276L995.748 0.744831L967.148 0.714765L964.649 10.3975ZM989.498 5.58096L951.017 154.696L961.017 154.706L999.498 5.59147L989.498 5.58096ZM957.267 149.86L928.667 149.83L926.168 159.512L954.768 159.542L957.267 149.86ZM1014.68 148.796L1011.04 152.945L1011.04 152.945L1014.68 148.796ZM995.706 121.715L990.68 123.897L990.689 123.928L990.698 123.959L995.706 121.715ZM1017.15 38.6372L1013.28 36.4055L1013.27 36.4155L1013.26 36.4255L1017.15 38.6372ZM1050.14 11.3978L1051.64 15.552L1051.67 15.5399L1051.69 15.5276L1050.14 11.3978ZM1124.72 11.4762L1121.02 15.5852L1121.05 15.6053L1121.08 15.625L1124.72 11.4762ZM1143.43 38.77L1138.4 40.9512L1138.41 40.9826L1138.42 41.0137L1143.43 38.77ZM1121.99 121.848L1118.12 119.616L1118.11 119.626L1118.11 119.636L1121.99 121.848ZM1089.26 148.875L1087.76 144.721L1087.75 144.728L1087.73 144.736L1089.26 148.875ZM1080.85 125.214L1082.68 129.188L1082.69 129.181L1082.7 129.175L1080.85 125.214ZM1100.26 107.123L1096.2 105.152L1096.17 105.186L1096.15 105.221L1100.26 107.123ZM1114.17 53.2286L1109.08 55.1209L1109.08 55.1556L1109.09 55.1901L1114.17 53.2286ZM1104.04 35.3193L1100.11 39.2435L1100.15 39.2807L1100.2 39.3165L1104.04 35.3193ZM1058.72 35.2717L1060.56 39.2452L1060.57 39.2389L1060.58 39.2325L1058.72 35.2717ZM1039.37 53.15L1035.31 51.1789L1039.37 53.15ZM1025.46 107.044L1020.38 109.006L1025.46 107.044ZM1035.53 125.167L1031.59 129.091L1031.63 129.128L1031.68 129.164L1035.53 125.167ZM1050.86 153.58C1037.75 153.567 1026.96 150.559 1018.33 144.648L1011.04 152.945C1021.11 159.838 1033.6 163.248 1048.36 163.263L1050.86 153.58ZM1018.33 144.648C1009.69 138.731 1003.81 130.384 1000.71 119.472L990.698 123.959C994.209 136.351 1000.98 146.058 1011.04 152.945L1018.33 144.648ZM1000.73 119.534C997.825 108.543 998.237 95.4713 1002.19 80.1719L992.186 80.1614C987.925 96.6731 987.35 111.3 990.68 123.897L1000.73 119.534ZM1002.19 80.1719C1006.17 64.7206 1012.51 51.6674 1021.03 40.849L1013.26 36.4255C1003.45 48.8844 996.481 63.5175 992.186 80.1614L1002.19 80.1719ZM1021.01 40.869C1029.77 29.8276 1039.97 21.4384 1051.64 15.552L1048.64 7.24368C1035.01 14.1154 1023.22 23.8859 1013.28 36.4055L1021.01 40.869ZM1051.69 15.5276C1063.4 9.50997 1075.73 6.46582 1088.82 6.47958L1091.32 -3.2032C1076.54 -3.21873 1062.26 0.243551 1048.59 7.26811L1051.69 15.5276ZM1088.82 6.47958C1101.91 6.49334 1112.58 9.56172 1121.02 15.5852L1128.42 7.3673C1118.53 0.302659 1106.1 -3.18766 1091.32 -3.2032L1088.82 6.47958ZM1121.08 15.625C1129.7 21.5264 1135.48 29.9184 1138.4 40.9512L1148.45 36.5888C1145.13 24.0343 1138.45 14.2305 1128.37 7.32749L1121.08 15.625ZM1138.42 41.0137C1141.48 51.8346 1141.15 64.8789 1137.17 80.3138L1147.17 80.3243C1151.46 63.6641 1151.97 49.0089 1148.43 36.5263L1138.42 41.0137ZM1137.17 80.3138C1133.22 95.5968 1126.83 108.647 1118.12 119.616L1125.85 124.08C1135.84 111.488 1142.9 96.8525 1147.17 80.3243L1137.17 80.3138ZM1118.11 119.636C1109.54 130.515 1099.44 138.832 1087.76 144.721L1090.77 153.029C1104.39 146.16 1116.1 136.459 1125.87 124.06L1118.11 119.636ZM1087.73 144.736C1076.22 150.611 1063.97 153.594 1050.86 153.58L1048.36 163.263C1063.12 163.279 1077.3 159.898 1090.79 153.014L1087.73 144.736ZM1055.29 136.422C1064.96 136.433 1074.15 134.087 1082.68 129.188L1079.01 121.241C1072.73 124.849 1065.72 126.748 1057.79 126.74L1055.29 136.422ZM1082.7 129.175C1091.27 124.215 1098.49 117.441 1104.37 109.025L1096.15 105.221C1091.32 112.136 1085.6 117.422 1078.99 121.253L1082.7 129.175ZM1104.32 109.094C1110.35 100.691 1114.69 91.0509 1117.47 80.2931L1107.47 80.2826C1104.96 89.9748 1101.17 98.2252 1096.2 105.152L1104.32 109.094ZM1117.47 80.2931C1120.28 69.4038 1120.93 59.6866 1119.24 51.2671L1109.09 55.1901C1110.48 62.1156 1110.01 70.4378 1107.47 80.2826L1117.47 80.2931ZM1119.26 51.3363C1117.72 42.9022 1113.97 36.1644 1107.89 31.3222L1100.2 39.3165C1104.83 43.0087 1107.82 48.2104 1109.08 55.1209L1119.26 51.3363ZM1107.98 31.3952C1102.02 26.314 1094.04 23.8607 1084.34 23.8505L1081.84 33.5333C1089.73 33.5416 1095.73 35.5065 1100.11 39.2435L1107.98 31.3952ZM1084.34 23.8505C1074.76 23.8404 1065.54 26.2858 1056.87 31.3109L1060.58 39.2325C1067.09 35.4663 1074.11 33.5251 1081.84 33.5333L1084.34 23.8505ZM1056.89 31.2981C1048.5 36.1178 1041.31 42.8128 1035.31 51.1789L1043.43 55.121C1048.42 48.1571 1054.14 42.9332 1060.56 39.2452L1056.89 31.2981ZM1035.31 51.1789C1029.27 59.5902 1024.92 69.3036 1022.11 80.1928L1032.11 80.2034C1034.65 70.3586 1038.47 62.0399 1043.43 55.121L1035.31 51.1789ZM1022.11 80.1928C1019.33 90.9506 1018.69 100.594 1020.38 109.006L1030.54 105.083C1029.14 98.1495 1029.6 89.8956 1032.11 80.2034L1022.11 80.1928ZM1020.38 109.006C1022.06 117.37 1025.76 124.124 1031.59 129.091L1039.46 121.242C1034.95 117.391 1031.94 112.064 1030.54 105.083L1020.38 109.006ZM1031.68 129.164C1037.79 134.039 1045.74 136.412 1055.29 136.422L1057.79 126.74C1050.03 126.732 1043.97 124.829 1039.38 121.169L1031.68 129.164ZM1145.05 154.9L1140.05 154.894L1138.8 159.736L1143.8 159.741L1145.05 154.9ZM1183.53 5.78494L1184.78 0.943556L1179.78 0.9383L1178.53 5.77969L1183.53 5.78494ZM1212.13 5.81501L1216.99 3.14768L1216.07 0.976447L1213.38 0.973622L1212.13 5.81501ZM1254.99 106.646L1250.13 109.314L1255.84 122.741L1259.99 106.652L1254.99 106.646ZM1280.99 5.8874L1282.24 1.04601L1277.24 1.04076L1275.99 5.88214L1280.99 5.8874ZM1309.81 5.9177L1314.81 5.92295L1316.06 1.08156L1311.06 1.07631L1309.81 5.9177ZM1271.33 155.032L1270.08 159.874L1275.08 159.879L1276.33 155.038L1271.33 155.032ZM1244.05 155.004L1239.19 157.65L1240.1 159.842L1242.8 159.845L1244.05 155.004ZM1200.54 50.7625L1205.4 48.1158L1199.73 34.5174L1195.54 50.7572L1200.54 50.7625ZM1173.65 154.93L1172.4 159.771L1177.4 159.776L1178.65 154.935L1173.65 154.93ZM1150.05 154.905L1188.53 5.7902L1178.53 5.77969L1140.05 154.894L1150.05 154.905ZM1182.29 10.6263L1210.89 10.6564L1213.38 0.973622L1184.78 0.943556L1182.29 10.6263ZM1207.28 8.48234L1250.13 109.314L1259.85 103.979L1216.99 3.14768L1207.28 8.48234ZM1259.99 106.652L1285.99 5.89266L1275.99 5.88214L1249.99 106.641L1259.99 106.652ZM1279.75 10.7288L1308.57 10.7591L1311.06 1.07631L1282.24 1.04601L1279.75 10.7288ZM1304.81 5.91244L1266.33 155.027L1276.33 155.038L1314.81 5.92295L1304.81 5.91244ZM1272.58 150.191L1245.3 150.162L1242.8 159.845L1270.08 159.874L1272.58 150.191ZM1248.92 152.357L1205.4 48.1158L1195.67 53.4091L1239.19 157.65L1248.92 152.357ZM1195.54 50.7572L1168.65 154.925L1178.65 154.935L1205.54 50.7677L1195.54 50.7572ZM1174.9 150.088L1146.3 150.058L1143.8 159.741L1172.4 159.771L1174.9 150.088Z" fill="url(#paint0_linear_401_1066)" mask="url(#path-1-outside-1_401_1066)"/>
</g>
<defs>
<linearGradient id="paint0_linear_401_1066" x1="448.5" y1="101.5" x2="637.601" y2="-91.7519" gradientUnits="userSpaceOnUse">
<stop stop-color="white"/>
<stop offset="1" stop-color="#FF0000"/>
</linearGradient>
</defs>
</svg>
