<svg width="137" height="91" viewBox="0 0 137 91" fill="none" xmlns="http://www.w3.org/2000/svg">
<path d="M45.3338 0.01828C45.0319 0.205482 34.6162 10.3894 22.238 22.7076C4.5388 40.2674 -0.253954 45.2096 0.0102141 45.6589C0.161167 45.9959 0.802717 46.7073 1.40653 47.2314C1.9726 47.7556 12.0487 57.8272 23.7476 69.5837C35.4842 81.3777 45.2961 91 45.6357 91C46.1641 91 49.5228 87.8924 55.7873 81.5274C61.0329 76.2108 67.5617 69.8833 68.0522 69.5837C68.3919 69.3965 72.1657 72.8785 79.4869 80.1421C85.4873 86.0952 90.6952 91 91.0348 91C91.6009 91 103.3 79.5056 127.339 55.2438C132.622 49.8897 137 45.3968 137 45.2845C137 44.7978 91.5632 0.01828 91.0726 0.01828C90.7707 0.01828 85.5628 4.92306 79.5247 10.8762C73.4866 16.8667 68.3919 21.6966 68.2032 21.6218C68.0145 21.5843 62.9198 16.6047 56.8817 10.5767C48.4661 2.26474 45.749 -0.243805 45.3338 0.01828ZM34.9558 28.0242C35.1822 28.1739 37.8994 32.0678 40.9562 36.7105C44.0507 41.3532 46.6924 45.2096 46.8434 45.3219C46.9943 45.4343 47.3717 45.9584 47.6359 46.4452C49.2209 49.2907 53.2966 55.0566 53.7495 55.0566C54.4287 55.0566 55.4854 53.821 62.9953 44.2361C69.7127 35.6621 71.1845 33.4157 71.8638 30.8323C72.3167 29.11 72.9582 28.5483 73.7885 29.1474C74.1658 29.3721 75.6376 31.4313 78.7699 35.9242C80.0908 37.8337 79.9398 39.8555 78.2793 42.7385C76.7698 45.3968 67.2975 59.4746 64.2784 63.5932C59.4102 70.1828 57.7874 71.9051 56.4666 71.9051C56.1647 71.9051 55.7873 72.0548 55.6741 72.2795C55.259 72.9534 52.655 72.6539 50.6549 71.7179C49.5605 71.1937 48.5793 70.7818 48.4661 70.7818C47.9755 70.7818 43.1073 66.4761 36.4653 60.1111C35.3709 59.0628 32.918 56.8163 31.031 55.0566C29.1064 53.3343 27.4459 51.612 27.3327 51.2376C27.2195 50.8632 27.5591 49.1784 28.0875 47.4561C28.6535 45.7712 29.2573 43.712 29.5215 42.8883C29.7479 42.0646 30.1253 40.7167 30.3895 39.893C30.6537 39.0693 31.2575 37.1223 31.7103 35.5873C32.1632 34.0522 32.6915 32.3673 32.8425 31.8432C32.9934 31.319 33.3331 30.1958 33.5972 29.2972C34.1256 27.6872 34.2388 27.5374 34.9558 28.0242ZM104.168 29.8962C104.168 30.4953 106.734 38.5077 107.225 39.4062C107.413 39.7807 107.564 40.492 107.564 40.9788C107.564 41.5029 107.753 42.0271 107.942 42.1394C108.168 42.2518 108.319 42.7011 108.319 43.1129C108.319 43.4873 108.47 44.1238 108.659 44.4982C109.074 45.2471 110.017 48.2798 110.395 50.1144C110.621 51.1627 110.47 51.4997 109.376 52.5481C107.602 54.2329 102.885 58.5012 99.4127 61.6088C97.79 63.0315 95.4879 65.1657 94.2426 66.2889C90.0536 70.1453 89.4498 70.5946 87.6761 71.2686C86.6572 71.643 85.5628 72.1297 85.2232 72.3169C84.3552 72.7662 82.0154 72.7662 81.7135 72.2795C81.6003 72.0548 81.1474 71.9051 80.7323 71.9051C79.4115 71.9051 73.1092 64.7164 71.1468 60.8974C70.9204 60.4481 70.4298 59.6619 70.0901 59.1377C69.3731 58.0893 69.524 57.2282 70.5807 55.9926C70.9204 55.5808 72.2035 53.6713 73.4111 51.7618C74.581 49.8523 75.8263 48.0177 76.1282 47.7182C76.883 47.0068 77.2981 47.3438 79.5624 50.5262C80.5436 51.9116 81.4116 53.0722 81.5625 53.1846C81.6758 53.2969 81.9777 53.7462 82.2418 54.1955C83.1098 55.8429 83.9778 55.2438 86.6949 51.2002C88.0913 49.1035 89.3366 47.194 89.4121 47.0068C89.4876 46.7821 89.6763 46.5575 89.8272 46.4452C89.9782 46.3328 92.6198 42.4764 95.6766 37.8337C98.7334 33.191 101.602 29.0351 102.017 28.5483L102.809 27.6872L103.488 28.5483C103.866 29.0351 104.168 29.6341 104.168 29.8962ZM65.486 30.6076C66.5805 33.6029 66.9956 34.464 67.2597 34.464C67.4484 34.464 67.5617 34.9133 67.5617 35.4749C67.5617 36.3735 64.0143 41.4655 61.4858 44.1238C60.5046 45.1722 60.2404 44.985 58.6932 42.1769C57.0704 39.2939 57.4101 37.684 60.5801 33.1162C64.1652 28.0242 64.4671 27.8744 65.486 30.6076Z" fill="#FF0000"/>
</svg>
